<svg xmlns="http://www.w3.org/2000/svg" xmlns:xlink="http://www.w3.org/1999/xlink" width="500" zoomAndPan="magnify" viewBox="0 0 375 374.999991" height="500" preserveAspectRatio="xMidYMid meet" version="1.0"><defs><clipPath id="dbfcc28728"><path d="M 10.015625 10.015625 L 364.984375 10.015625 L 364.984375 364.984375 L 10.015625 364.984375 Z M 10.015625 10.015625 " clip-rule="nonzero"/></clipPath><clipPath id="1fe26d40cc"><path d="M 187.5 10.015625 C 89.476562 10.015625 10.015625 89.476562 10.015625 187.5 C 10.015625 285.523438 89.476562 364.984375 187.5 364.984375 C 285.523438 364.984375 364.984375 285.523438 364.984375 187.5 C 364.984375 89.476562 285.523438 10.015625 187.5 10.015625 Z M 187.5 10.015625 " clip-rule="nonzero"/></clipPath><clipPath id="b901d050aa"><path d="M 74 235 L 300.964844 235 L 300.964844 306.246094 L 74 306.246094 Z M 74 235 " clip-rule="nonzero"/></clipPath><clipPath id="280f6f494d"><path d="M 135 55 L 285 55 L 285 276 L 135 276 Z M 135 55 " clip-rule="nonzero"/></clipPath><clipPath id="6d10337067"><path d="M 156.488281 37.5 L 301.492188 75.878906 L 243.351562 295.566406 L 98.34375 257.1875 Z M 156.488281 37.5 " clip-rule="nonzero"/></clipPath><clipPath id="3838a36be2"><path d="M 156.488281 37.5 L 301.492188 75.878906 L 243.351562 295.566406 L 98.34375 257.1875 Z M 156.488281 37.5 " clip-rule="nonzero"/></clipPath></defs><rect x="-37.5" width="450" fill="#ffffff" y="-37.499999" height="449.999989" fill-opacity="1"/><rect x="-37.5" width="450" fill="#ffffff" y="-37.499999" height="449.999989" fill-opacity="1"/><g clip-path="url(#dbfcc28728)"><g clip-path="url(#1fe26d40cc)"><path fill="#d71729" d="M 10.015625 10.015625 L 364.984375 10.015625 L 364.984375 364.984375 L 10.015625 364.984375 Z M 10.015625 10.015625 " fill-opacity="1" fill-rule="nonzero"/></g></g><g clip-path="url(#b901d050aa)"><path fill="#231f20" d="M 172.09375 235.792969 C 172.4375 235.722656 172.773438 235.601562 173.113281 235.59375 C 176.382812 235.566406 179.65625 235.578125 182.925781 235.539062 C 184.40625 235.519531 185.894531 235.390625 187.375 235.363281 C 189.75 235.320312 192.125 235.328125 194.5 235.308594 C 194.996094 235.304688 195.492188 235.273438 195.988281 235.269531 C 198.746094 235.25 201.507812 235.257812 204.265625 235.210938 C 206.332031 235.175781 208.402344 235.015625 210.46875 235.011719 C 212.171875 235.007812 213.878906 235.171875 215.582031 235.214844 C 217.410156 235.261719 219.238281 235.207031 221.0625 235.285156 C 225.382812 235.46875 229.707031 235.648438 234.023438 235.9375 C 238.164062 236.210938 242.328125 236.429688 246.429688 237.03125 C 251.40625 237.765625 256.433594 238.242188 261.324219 239.570312 C 264.636719 240.46875 268.042969 241.019531 271.316406 242.019531 C 274.800781 243.085938 278.199219 244.453125 281.589844 245.792969 C 283.484375 246.546875 285.375 247.386719 287.121094 248.421875 C 289.636719 249.914062 292.078125 251.511719 294.277344 253.503906 C 296.414062 255.441406 298.109375 257.644531 299.40625 260.1875 C 300.40625 262.144531 301.027344 264.207031 300.734375 266.433594 C 300.449219 268.574219 299.855469 270.578125 298.578125 272.414062 C 296.078125 276.011719 292.851562 278.746094 289.320312 281.273438 C 284.949219 284.402344 280.152344 286.660156 275.261719 288.757812 C 272.476562 289.949219 269.574219 290.871094 266.703125 291.851562 C 263.832031 292.832031 260.960938 293.804688 258.046875 294.648438 C 255.605469 295.355469 253.109375 295.855469 250.640625 296.46875 C 249.949219 296.640625 249.28125 296.925781 248.582031 297.089844 C 245.804688 297.738281 243.035156 298.441406 240.230469 298.972656 C 236.8125 299.625 233.367188 300.113281 229.9375 300.703125 C 228.519531 300.945312 227.125 301.320312 225.707031 301.527344 C 223.867188 301.792969 222 301.894531 220.160156 302.15625 C 218.128906 302.449219 216.128906 302.914062 214.097656 303.171875 C 211.964844 303.445312 209.816406 303.542969 207.671875 303.746094 C 206.964844 303.8125 206.269531 304.019531 205.558594 304.078125 C 201.425781 304.433594 197.289062 304.804688 193.148438 305.089844 C 189.445312 305.347656 185.738281 305.503906 182.035156 305.691406 C 179.667969 305.8125 177.308594 305.960938 174.941406 305.996094 C 170.902344 306.0625 166.855469 306.183594 162.828125 306.023438 C 160.417969 305.929688 158.019531 306 155.621094 305.941406 C 153.96875 305.894531 152.324219 305.683594 150.667969 305.574219 C 149.53125 305.5 148.386719 305.476562 147.25 305.449219 C 146.589844 305.429688 145.917969 305.542969 145.277344 305.441406 C 142.738281 305.035156 140.167969 305.25 137.625 304.941406 C 135.042969 304.625 132.460938 304.371094 129.875 304.085938 C 128.347656 303.914062 126.808594 303.785156 125.285156 303.546875 C 122.511719 303.113281 119.765625 302.472656 116.980469 302.175781 C 114.589844 301.925781 112.328125 301.222656 110.015625 300.679688 C 107.078125 299.992188 104.128906 299.367188 101.222656 298.582031 C 99.492188 298.113281 97.828125 297.382812 96.128906 296.785156 C 95.710938 296.640625 95.28125 296.539062 94.855469 296.425781 C 94.378906 296.296875 93.859375 296.261719 93.425781 296.054688 C 91.28125 295.054688 89.125 294.074219 87.035156 292.960938 C 84.960938 291.855469 82.984375 290.636719 81.246094 288.976562 C 80.046875 287.835938 78.742188 286.816406 77.707031 285.511719 C 74.382812 281.335938 73.957031 276.703125 76.035156 271.957031 C 76.773438 270.269531 77.6875 268.484375 79.289062 267.234375 C 80.136719 266.574219 80.675781 265.53125 81.457031 264.769531 C 84.242188 262.058594 87.328125 259.742188 90.832031 258.015625 C 91.128906 257.871094 91.410156 257.691406 91.699219 257.527344 C 93.699219 256.386719 95.664062 255.191406 97.699219 254.117188 C 98.90625 253.476562 100.191406 252.984375 101.464844 252.480469 C 103.871094 251.523438 106.269531 250.539062 108.710938 249.679688 C 111.371094 248.738281 114.070312 247.902344 116.765625 247.070312 C 118.488281 246.539062 120.234375 246.050781 121.988281 245.613281 C 122.730469 245.425781 123.535156 245.460938 124.28125 245.285156 C 126.4375 244.777344 128.5625 244.152344 130.726562 243.703125 C 133.324219 243.160156 135.953125 242.75 138.566406 242.296875 C 139.929688 242.0625 141.292969 241.839844 142.664062 241.644531 C 146.054688 241.167969 149.4375 240.65625 152.84375 240.273438 C 156.695312 239.835938 160.554688 239.476562 164.421875 239.171875 C 167.828125 238.90625 171.242188 238.75 174.65625 238.558594 C 175.023438 238.542969 175.386719 238.597656 175.816406 238.910156 C 175.0625 239.136719 174.328125 239.4375 173.5625 239.574219 C 167.726562 240.632812 161.878906 241.621094 156.042969 242.699219 C 152.992188 243.257812 149.976562 243.96875 146.9375 244.574219 C 145.535156 244.855469 144.113281 245.03125 142.703125 245.28125 C 142.269531 245.355469 141.855469 245.523438 141.425781 245.613281 C 140.402344 245.832031 139.371094 246.003906 138.351562 246.238281 C 137.441406 246.449219 136.546875 246.722656 135.640625 246.949219 C 133.273438 247.527344 130.867188 247.96875 128.554688 248.703125 C 126.808594 249.257812 124.945312 249.464844 123.285156 250.078125 C 120.484375 251.109375 117.597656 251.769531 114.789062 252.71875 C 113.125 253.28125 111.503906 253.976562 109.851562 254.585938 C 107.589844 255.417969 105.289062 256.152344 103.0625 257.066406 C 101.75 257.609375 100.585938 258.5 99.289062 259.101562 C 96.714844 260.304688 94.113281 261.453125 91.71875 263 C 90.566406 263.75 89.515625 264.660156 88.375 265.429688 C 85.90625 267.09375 84.105469 269.453125 82.011719 271.511719 C 81.3125 272.203125 80.941406 273.3125 80.617188 274.292969 C 79.199219 278.605469 80.535156 282.21875 84.210938 284.863281 C 85.1875 285.5625 85.902344 286.550781 87.082031 287.046875 C 88.691406 287.722656 90.203125 288.617188 91.753906 289.433594 C 92.328125 289.738281 92.835938 290.191406 93.4375 290.417969 C 95.335938 291.121094 97.253906 291.761719 99.175781 292.398438 C 101.894531 293.300781 104.609375 294.21875 107.351562 295.039062 C 108.808594 295.480469 110.316406 295.773438 111.816406 296.054688 C 113.828125 296.433594 115.855469 296.746094 117.875 297.078125 C 120.480469 297.503906 123.101562 297.871094 125.695312 298.367188 C 127.792969 298.769531 129.90625 298.988281 132.035156 299.152344 C 132.464844 299.183594 132.890625 299.339844 133.316406 299.441406 C 133.640625 299.519531 133.972656 299.699219 134.28125 299.664062 C 137.394531 299.347656 140.429688 299.992188 143.480469 300.410156 C 144.03125 300.484375 144.59375 300.441406 145.152344 300.472656 C 147.527344 300.609375 149.898438 300.800781 152.273438 300.882812 C 154.132812 300.945312 156.003906 300.847656 157.867188 300.886719 C 159.796875 300.921875 161.722656 301.078125 163.65625 301.105469 C 165.703125 301.132812 167.75 301.066406 169.804688 301.058594 C 171.023438 301.054688 172.242188 301.027344 173.464844 301.101562 C 175.777344 301.242188 178.070312 301.085938 180.386719 300.917969 C 183.511719 300.691406 186.667969 300.859375 189.808594 300.746094 C 191.785156 300.675781 193.757812 300.367188 195.734375 300.210938 C 197.324219 300.089844 198.921875 300.039062 200.511719 299.957031 C 201.546875 299.898438 202.589844 299.875 203.621094 299.773438 C 206.8125 299.445312 210.007812 299.09375 213.199219 298.726562 C 215.726562 298.429688 218.246094 298.050781 220.777344 297.785156 C 224.007812 297.445312 227.214844 297.015625 230.402344 296.378906 C 232.242188 296.007812 234.113281 295.816406 235.957031 295.476562 C 238.460938 295.007812 240.953125 294.503906 243.433594 293.960938 C 246.71875 293.246094 250.003906 292.558594 253.253906 291.722656 C 256.675781 290.84375 260.078125 289.847656 263.460938 288.816406 C 269.402344 287.015625 275.175781 284.746094 280.753906 282.054688 C 285.496094 279.773438 290.003906 277.042969 293.695312 273.203125 C 295.53125 271.296875 296.933594 269.039062 297.226562 266.386719 C 297.460938 264.292969 296.988281 262.179688 295.839844 260.339844 C 293.394531 256.445312 289.960938 253.585938 285.972656 251.40625 C 283.109375 249.839844 280.210938 248.296875 277.1875 247.101562 C 273.746094 245.746094 270.152344 244.753906 266.609375 243.671875 C 264.878906 243.144531 263.105469 242.75 261.34375 242.339844 C 257.511719 241.449219 253.695312 240.527344 249.753906 240.15625 C 246.390625 239.835938 243.050781 239.242188 239.699219 238.820312 C 237.773438 238.578125 235.832031 238.433594 233.902344 238.257812 C 230.429688 237.941406 226.964844 237.570312 223.492188 237.359375 C 220.683594 237.191406 217.859375 237.242188 215.042969 237.179688 C 210.890625 237.09375 206.734375 236.957031 202.582031 236.894531 C 198.332031 236.835938 194.074219 236.863281 189.824219 236.800781 C 185.285156 236.738281 180.738281 236.609375 176.199219 236.515625 C 175.277344 236.5 174.347656 236.535156 173.433594 236.476562 C 172.972656 236.441406 172.523438 236.242188 172.070312 236.121094 C 172.074219 236.007812 172.085938 235.898438 172.09375 235.792969 Z M 172.09375 235.792969 " fill-opacity="1" fill-rule="nonzero"/></g><g clip-path="url(#280f6f494d)"><g clip-path="url(#6d10337067)"><g clip-path="url(#3838a36be2)"><path fill="#ffffff" d="M 228.546875 57.925781 C 188.546875 47.335938 147.523438 71.191406 136.929688 111.207031 C 126.34375 151.207031 171.03125 275.238281 171.03125 275.238281 C 171.03125 275.238281 271.222656 189.550781 281.808594 149.550781 C 292.398438 109.535156 268.546875 68.511719 228.546875 57.925781 Z M 200.292969 164.675781 C 179.234375 159.101562 166.679688 137.53125 172.257812 116.457031 C 177.828125 95.414062 199.414062 82.863281 220.46875 88.4375 C 241.527344 94.011719 254.0625 115.59375 248.492188 136.632812 C 242.914062 157.710938 221.351562 170.25 200.292969 164.675781 Z M 200.292969 164.675781 " fill-opacity="1" fill-rule="nonzero"/></g></g></g></svg>