<svg xmlns="http://www.w3.org/2000/svg" xmlns:xlink="http://www.w3.org/1999/xlink" width="500" zoomAndPan="magnify" viewBox="0 0 375 374.999991" height="500" preserveAspectRatio="xMidYMid meet" version="1.0"><defs><g/><clipPath id="b0fe0f2819"><path d="M 74 222.523438 L 300.964844 222.523438 L 300.964844 293.773438 L 74 293.773438 Z M 74 222.523438 " clip-rule="nonzero"/></clipPath><clipPath id="bc98488063"><path d="M 135 42 L 285 42 L 285 263 L 135 263 Z M 135 42 " clip-rule="nonzero"/></clipPath><clipPath id="89f450f606"><path d="M 156.488281 25.027344 L 301.492188 63.40625 L 243.351562 283.09375 L 98.34375 244.714844 Z M 156.488281 25.027344 " clip-rule="nonzero"/></clipPath><clipPath id="cae11e9831"><path d="M 156.488281 25.027344 L 301.492188 63.40625 L 243.351562 283.09375 L 98.34375 244.714844 Z M 156.488281 25.027344 " clip-rule="nonzero"/></clipPath></defs><g clip-path="url(#b0fe0f2819)"><path fill="#231f20" d="M 172.09375 223.320312 C 172.4375 223.25 172.773438 223.128906 173.113281 223.121094 C 176.382812 223.09375 179.65625 223.105469 182.925781 223.066406 C 184.40625 223.046875 185.894531 222.917969 187.375 222.886719 C 189.75 222.847656 192.125 222.855469 194.5 222.835938 C 194.996094 222.832031 195.492188 222.800781 195.988281 222.796875 C 198.746094 222.777344 201.507812 222.785156 204.265625 222.738281 C 206.332031 222.703125 208.402344 222.542969 210.46875 222.539062 C 212.171875 222.535156 213.878906 222.695312 215.582031 222.742188 C 217.410156 222.789062 219.238281 222.734375 221.0625 222.8125 C 225.382812 222.996094 229.707031 223.175781 234.023438 223.464844 C 238.164062 223.738281 242.328125 223.953125 246.429688 224.558594 C 251.40625 225.292969 256.433594 225.769531 261.324219 227.097656 C 264.636719 227.996094 268.042969 228.546875 271.316406 229.546875 C 274.800781 230.613281 278.199219 231.980469 281.589844 233.320312 C 283.484375 234.074219 285.375 234.914062 287.121094 235.949219 C 289.636719 237.441406 292.078125 239.039062 294.277344 241.03125 C 296.414062 242.96875 298.109375 245.167969 299.40625 247.714844 C 300.40625 249.671875 301.027344 251.734375 300.734375 253.960938 C 300.449219 256.101562 299.855469 258.101562 298.578125 259.941406 C 296.078125 263.535156 292.851562 266.273438 289.320312 268.800781 C 284.949219 271.929688 280.152344 274.1875 275.261719 276.285156 C 272.476562 277.476562 269.574219 278.398438 266.703125 279.378906 C 263.832031 280.359375 260.960938 281.332031 258.046875 282.175781 C 255.605469 282.882812 253.109375 283.382812 250.640625 283.992188 C 249.949219 284.167969 249.28125 284.453125 248.582031 284.617188 C 245.804688 285.265625 243.035156 285.96875 240.230469 286.5 C 236.8125 287.148438 233.367188 287.640625 229.9375 288.230469 C 228.519531 288.472656 227.125 288.847656 225.707031 289.054688 C 223.867188 289.320312 222 289.421875 220.160156 289.683594 C 218.128906 289.972656 216.128906 290.441406 214.097656 290.699219 C 211.964844 290.96875 209.816406 291.070312 207.671875 291.273438 C 206.964844 291.339844 206.269531 291.546875 205.558594 291.605469 C 201.425781 291.960938 197.289062 292.332031 193.148438 292.617188 C 189.445312 292.875 185.738281 293.03125 182.035156 293.21875 C 179.667969 293.339844 177.308594 293.484375 174.941406 293.523438 C 170.902344 293.589844 166.855469 293.710938 162.828125 293.550781 C 160.417969 293.457031 158.019531 293.527344 155.621094 293.46875 C 153.96875 293.421875 152.324219 293.210938 150.667969 293.101562 C 149.53125 293.027344 148.386719 293.003906 147.25 292.976562 C 146.589844 292.957031 145.917969 293.070312 145.277344 292.96875 C 142.738281 292.558594 140.167969 292.777344 137.625 292.46875 C 135.042969 292.152344 132.460938 291.894531 129.875 291.609375 C 128.347656 291.441406 126.808594 291.3125 125.285156 291.074219 C 122.511719 290.636719 119.765625 289.996094 116.980469 289.703125 C 114.589844 289.449219 112.328125 288.75 110.015625 288.207031 C 107.078125 287.519531 104.128906 286.894531 101.222656 286.109375 C 99.492188 285.640625 97.828125 284.910156 96.128906 284.3125 C 95.710938 284.167969 95.28125 284.0625 94.855469 283.953125 C 94.378906 283.824219 93.859375 283.789062 93.425781 283.582031 C 91.28125 282.582031 89.125 281.601562 87.035156 280.488281 C 84.960938 279.382812 82.984375 278.164062 81.246094 276.503906 C 80.046875 275.363281 78.742188 274.34375 77.707031 273.039062 C 74.382812 268.863281 73.957031 264.230469 76.035156 259.484375 C 76.773438 257.792969 77.6875 256.011719 79.289062 254.761719 C 80.136719 254.101562 80.675781 253.058594 81.457031 252.296875 C 84.242188 249.582031 87.328125 247.269531 90.832031 245.542969 C 91.128906 245.398438 91.410156 245.214844 91.699219 245.054688 C 93.699219 243.910156 95.664062 242.71875 97.699219 241.644531 C 98.90625 241.003906 100.191406 240.511719 101.464844 240.007812 C 103.871094 239.046875 106.269531 238.066406 108.710938 237.207031 C 111.371094 236.265625 114.070312 235.429688 116.765625 234.597656 C 118.488281 234.0625 120.234375 233.578125 121.988281 233.136719 C 122.730469 232.953125 123.535156 232.988281 124.28125 232.8125 C 126.4375 232.304688 128.5625 231.679688 130.726562 231.230469 C 133.324219 230.6875 135.953125 230.277344 138.566406 229.824219 C 139.929688 229.589844 141.292969 229.363281 142.664062 229.171875 C 146.054688 228.695312 149.4375 228.183594 152.84375 227.796875 C 156.695312 227.363281 160.554688 227.003906 164.421875 226.699219 C 167.828125 226.433594 171.242188 226.277344 174.65625 226.085938 C 175.023438 226.070312 175.386719 226.125 175.816406 226.4375 C 175.0625 226.664062 174.328125 226.964844 173.5625 227.101562 C 167.726562 228.160156 161.878906 229.148438 156.042969 230.226562 C 152.992188 230.785156 149.976562 231.496094 146.9375 232.101562 C 145.535156 232.382812 144.113281 232.558594 142.703125 232.804688 C 142.269531 232.882812 141.855469 233.050781 141.425781 233.136719 C 140.402344 233.359375 139.371094 233.53125 138.351562 233.765625 C 137.441406 233.976562 136.546875 234.25 135.640625 234.476562 C 133.273438 235.054688 130.867188 235.496094 128.554688 236.230469 C 126.808594 236.785156 124.945312 236.992188 123.285156 237.605469 C 120.484375 238.636719 117.597656 239.296875 114.789062 240.246094 C 113.125 240.808594 111.503906 241.503906 109.851562 242.113281 C 107.589844 242.945312 105.289062 243.679688 103.0625 244.59375 C 101.75 245.136719 100.585938 246.023438 99.289062 246.628906 C 96.714844 247.832031 94.113281 248.980469 91.71875 250.527344 C 90.566406 251.277344 89.515625 252.1875 88.375 252.957031 C 85.90625 254.621094 84.105469 256.980469 82.011719 259.039062 C 81.3125 259.730469 80.941406 260.839844 80.617188 261.820312 C 79.199219 266.132812 80.535156 269.746094 84.210938 272.386719 C 85.1875 273.089844 85.902344 274.078125 87.082031 274.570312 C 88.691406 275.25 90.203125 276.144531 91.753906 276.960938 C 92.328125 277.265625 92.835938 277.71875 93.4375 277.945312 C 95.335938 278.648438 97.253906 279.289062 99.175781 279.925781 C 101.894531 280.828125 104.609375 281.746094 107.351562 282.566406 C 108.808594 283.007812 110.316406 283.300781 111.816406 283.582031 C 113.828125 283.960938 115.855469 284.273438 117.875 284.605469 C 120.480469 285.03125 123.101562 285.398438 125.695312 285.890625 C 127.792969 286.292969 129.90625 286.515625 132.035156 286.679688 C 132.464844 286.710938 132.890625 286.863281 133.316406 286.96875 C 133.640625 287.046875 133.972656 287.226562 134.28125 287.191406 C 137.394531 286.875 140.429688 287.519531 143.480469 287.9375 C 144.03125 288.011719 144.59375 287.96875 145.152344 288 C 147.527344 288.136719 149.898438 288.328125 152.273438 288.40625 C 154.132812 288.472656 156.003906 288.375 157.867188 288.414062 C 159.796875 288.449219 161.722656 288.605469 163.65625 288.632812 C 165.703125 288.660156 167.75 288.59375 169.804688 288.585938 C 171.023438 288.582031 172.242188 288.554688 173.464844 288.628906 C 175.777344 288.769531 178.070312 288.613281 180.386719 288.445312 C 183.511719 288.214844 186.667969 288.386719 189.808594 288.273438 C 191.785156 288.203125 193.757812 287.894531 195.734375 287.738281 C 197.324219 287.617188 198.921875 287.566406 200.511719 287.480469 C 201.546875 287.425781 202.589844 287.402344 203.621094 287.300781 C 206.8125 286.972656 210.007812 286.621094 213.199219 286.253906 C 215.726562 285.957031 218.246094 285.578125 220.777344 285.3125 C 224.007812 284.972656 227.214844 284.542969 230.402344 283.90625 C 232.242188 283.535156 234.113281 283.34375 235.957031 283.003906 C 238.460938 282.535156 240.953125 282.03125 243.433594 281.488281 C 246.71875 280.773438 250.003906 280.085938 253.253906 279.246094 C 256.675781 278.367188 260.078125 277.371094 263.460938 276.34375 C 269.402344 274.542969 275.175781 272.269531 280.753906 269.582031 C 285.496094 267.300781 290.003906 264.570312 293.695312 260.730469 C 295.53125 258.824219 296.933594 256.566406 297.226562 253.914062 C 297.460938 251.820312 296.988281 249.707031 295.839844 247.867188 C 293.394531 243.972656 289.960938 241.109375 285.972656 238.933594 C 283.109375 237.367188 280.210938 235.824219 277.1875 234.628906 C 273.746094 233.273438 270.152344 232.28125 266.609375 231.199219 C 264.878906 230.667969 263.105469 230.277344 261.34375 229.867188 C 257.511719 228.976562 253.695312 228.054688 249.753906 227.679688 C 246.390625 227.363281 243.050781 226.769531 239.699219 226.347656 C 237.773438 226.105469 235.832031 225.960938 233.902344 225.78125 C 230.429688 225.46875 226.964844 225.097656 223.492188 224.886719 C 220.683594 224.71875 217.859375 224.769531 215.042969 224.707031 C 210.890625 224.617188 206.734375 224.484375 202.582031 224.421875 C 198.332031 224.363281 194.074219 224.390625 189.824219 224.328125 C 185.285156 224.261719 180.738281 224.136719 176.199219 224.042969 C 175.277344 224.023438 174.347656 224.0625 173.433594 224 C 172.972656 223.96875 172.523438 223.769531 172.070312 223.644531 C 172.074219 223.535156 172.085938 223.425781 172.09375 223.320312 Z M 172.09375 223.320312 " fill-opacity="1" fill-rule="nonzero"/></g><g clip-path="url(#bc98488063)"><g clip-path="url(#89f450f606)"><g clip-path="url(#cae11e9831)"><path fill="#ffffff" d="M 228.546875 45.449219 C 188.546875 34.863281 147.523438 58.71875 136.929688 98.734375 C 126.34375 138.734375 171.03125 262.765625 171.03125 262.765625 C 171.03125 262.765625 271.222656 177.078125 281.808594 137.078125 C 292.398438 97.0625 268.546875 56.039062 228.546875 45.449219 Z M 200.292969 152.203125 C 179.234375 146.628906 166.679688 125.058594 172.257812 103.984375 C 177.828125 82.941406 199.414062 70.390625 220.46875 75.964844 C 241.527344 81.539062 254.0625 103.117188 248.492188 124.160156 C 242.914062 145.238281 221.351562 157.777344 200.292969 152.203125 Z M 200.292969 152.203125 " fill-opacity="1" fill-rule="nonzero"/></g></g></g><g fill="#ffffff" fill-opacity="1"><g transform="translate(39.86938, 338.32196)"><g><path d="M 11.65625 -21.515625 C 10.863281 -21.515625 10.210938 -21.300781 9.703125 -20.875 C 9.203125 -20.457031 8.953125 -19.847656 8.953125 -19.046875 C 8.953125 -18.253906 9.1875 -17.613281 9.65625 -17.125 C 10.125 -16.644531 10.738281 -16.273438 11.5 -16.015625 C 12.257812 -15.753906 13.101562 -15.503906 14.03125 -15.265625 C 14.96875 -15.023438 15.894531 -14.738281 16.8125 -14.40625 C 17.726562 -14.070312 18.566406 -13.65625 19.328125 -13.15625 C 20.085938 -12.664062 20.703125 -11.960938 21.171875 -11.046875 C 21.648438 -10.140625 21.890625 -9.054688 21.890625 -7.796875 C 21.890625 -5.578125 20.988281 -3.675781 19.1875 -2.09375 C 17.382812 -0.519531 15.007812 0.265625 12.0625 0.265625 C 9.113281 0.265625 6.738281 -0.441406 4.9375 -1.859375 C 3.132812 -3.273438 2.234375 -5.289062 2.234375 -7.90625 L 9.015625 -7.90625 C 9.191406 -5.8125 10.265625 -4.765625 12.234375 -4.765625 C 13.148438 -4.765625 13.867188 -5.003906 14.390625 -5.484375 C 14.910156 -5.972656 15.171875 -6.59375 15.171875 -7.34375 C 15.171875 -8.09375 14.929688 -8.703125 14.453125 -9.171875 C 13.984375 -9.640625 13.367188 -10.007812 12.609375 -10.28125 C 11.859375 -10.5625 11.015625 -10.816406 10.078125 -11.046875 C 9.148438 -11.285156 8.222656 -11.578125 7.296875 -11.921875 C 6.378906 -12.273438 5.539062 -12.691406 4.78125 -13.171875 C 4.03125 -13.660156 3.414062 -14.359375 2.9375 -15.265625 C 2.46875 -16.171875 2.234375 -17.242188 2.234375 -18.484375 C 2.234375 -20.921875 3.140625 -22.875 4.953125 -24.34375 C 6.773438 -25.8125 9.09375 -26.546875 11.90625 -26.546875 C 14.726562 -26.546875 17.007812 -25.90625 18.75 -24.625 C 20.488281 -23.34375 21.394531 -21.320312 21.46875 -18.5625 L 14.546875 -18.5625 C 14.441406 -19.507812 14.132812 -20.238281 13.625 -20.75 C 13.113281 -21.257812 12.457031 -21.515625 11.65625 -21.515625 Z M 11.65625 -21.515625 "/></g></g></g><g fill="#ffffff" fill-opacity="1"><g transform="translate(63.989407, 338.32196)"><g><path d="M 32.4375 -26.171875 L 32.4375 0 L 26.0625 0 L 26.0625 -14.765625 L 19.984375 0 L 15.25 0 L 9.171875 -14.765625 L 9.171875 0 L 2.796875 0 L 2.796875 -26.171875 L 10.109375 -26.171875 L 17.640625 -8.125 L 25.125 -26.171875 Z M 32.4375 -26.171875 "/></g></g></g><g fill="#ffffff" fill-opacity="1"><g transform="translate(99.218814, 338.32196)"><g><path d="M 19.421875 0 L 17.96875 -4.40625 L 8.578125 -4.40625 L 7.125 0 L 0.328125 0 L 9.4375 -26.25 L 17.1875 -26.25 L 26.25 0 Z M 10.171875 -9.25 L 16.359375 -9.25 L 13.265625 -18.5625 Z M 10.171875 -9.25 "/></g></g></g><g fill="#ffffff" fill-opacity="1"><g transform="translate(125.799309, 338.32196)"><g><path d="M 9.171875 -10.171875 L 9.171875 0 L 2.796875 0 L 2.796875 -26.171875 L 13.125 -26.171875 C 16.15625 -26.171875 18.515625 -25.382812 20.203125 -23.8125 C 21.890625 -22.25 22.734375 -20.363281 22.734375 -18.15625 C 22.734375 -16.632812 22.273438 -15.15625 21.359375 -13.71875 C 20.441406 -12.28125 18.9375 -11.257812 16.84375 -10.65625 L 23.265625 0 L 15.8125 0 L 9.921875 -10.171875 Z M 9.171875 -21.328125 L 9.171875 -15.03125 L 13.125 -15.03125 C 14.09375 -15.03125 14.851562 -15.3125 15.40625 -15.875 C 15.96875 -16.445312 16.25 -17.195312 16.25 -18.125 C 16.25 -19.0625 15.960938 -19.828125 15.390625 -20.421875 C 14.828125 -21.023438 14.070312 -21.328125 13.125 -21.328125 Z M 9.171875 -21.328125 "/></g></g></g><g fill="#ffffff" fill-opacity="1"><g transform="translate(150.702212, 338.32196)"><g><path d="M 1 -21.328125 L 1 -26.171875 L 21.65625 -26.171875 L 21.65625 -21.328125 L 14.5 -21.328125 L 14.5 0 L 8.125 0 L 8.125 -21.328125 Z M 1 -21.328125 "/></g></g></g><g fill="#ffffff" fill-opacity="1"><g transform="translate(173.36833, 338.32196)"><g/></g></g><g fill="#ffffff" fill-opacity="1"><g transform="translate(184.552272, 338.32196)"><g><path d="M 1 -21.328125 L 1 -26.171875 L 21.65625 -26.171875 L 21.65625 -21.328125 L 14.5 -21.328125 L 14.5 0 L 8.125 0 L 8.125 -21.328125 Z M 1 -21.328125 "/></g></g></g><g fill="#ffffff" fill-opacity="1"><g transform="translate(207.21839, 338.32196)"><g><path d="M 9.171875 -20.796875 L 9.171875 -16.921875 C 10.660156 -19.660156 12.648438 -21.03125 15.140625 -21.03125 L 15.140625 -14.546875 L 13.578125 -14.546875 C 12.109375 -14.546875 11.003906 -14.195312 10.265625 -13.5 C 9.535156 -12.800781 9.171875 -11.582031 9.171875 -9.84375 L 9.171875 0 L 2.796875 0 L 2.796875 -20.796875 Z M 9.171875 -20.796875 "/></g></g></g><g fill="#ffffff" fill-opacity="1"><g transform="translate(223.025012, 338.32196)"><g><path d="M 15.46875 -6.59375 C 16.382812 -7.488281 16.84375 -8.753906 16.84375 -10.390625 C 16.84375 -12.035156 16.382812 -13.300781 15.46875 -14.1875 C 14.550781 -15.070312 13.492188 -15.515625 12.296875 -15.515625 C 11.109375 -15.515625 10.050781 -15.066406 9.125 -14.171875 C 8.207031 -13.273438 7.75 -12.003906 7.75 -10.359375 C 7.75 -8.722656 8.207031 -7.460938 9.125 -6.578125 C 10.050781 -5.691406 11.109375 -5.25 12.296875 -5.25 C 13.492188 -5.25 14.550781 -5.695312 15.46875 -6.59375 Z M 4.015625 -2.71875 C 2.179688 -4.707031 1.265625 -7.253906 1.265625 -10.359375 C 1.265625 -13.472656 2.179688 -16.03125 4.015625 -18.03125 C 5.859375 -20.03125 8.101562 -21.03125 10.75 -21.03125 C 13.394531 -21.03125 15.425781 -20.046875 16.84375 -18.078125 L 16.84375 -20.796875 L 23.21875 -20.796875 L 23.21875 0 L 16.84375 0 L 16.84375 -3.015625 C 15.3125 -0.828125 13.25 0.265625 10.65625 0.265625 C 8.070312 0.265625 5.859375 -0.726562 4.015625 -2.71875 Z M 4.015625 -2.71875 "/></g></g></g><g fill="#ffffff" fill-opacity="1"><g transform="translate(249.046306, 338.32196)"><g><path d="M 4.15625 -2.640625 C 2.226562 -4.585938 1.265625 -7.175781 1.265625 -10.40625 C 1.265625 -13.632812 2.226562 -16.210938 4.15625 -18.140625 C 6.082031 -20.066406 8.570312 -21.03125 11.625 -21.03125 C 14.164062 -21.03125 16.316406 -20.398438 18.078125 -19.140625 C 19.847656 -17.890625 21.015625 -16.09375 21.578125 -13.75 L 14.6875 -13.75 C 14.09375 -15 13.117188 -15.625 11.765625 -15.625 C 10.410156 -15.625 9.398438 -15.144531 8.734375 -14.1875 C 8.078125 -13.226562 7.75 -11.960938 7.75 -10.390625 C 7.75 -8.828125 8.078125 -7.566406 8.734375 -6.609375 C 9.398438 -5.660156 10.363281 -5.1875 11.625 -5.1875 C 12.425781 -5.1875 13.050781 -5.320312 13.5 -5.59375 C 13.945312 -5.863281 14.34375 -6.347656 14.6875 -7.046875 L 21.578125 -7.046875 C 21.015625 -4.804688 19.835938 -3.023438 18.046875 -1.703125 C 16.253906 -0.390625 14.113281 0.265625 11.625 0.265625 C 8.570312 0.265625 6.082031 -0.703125 4.15625 -2.640625 Z M 4.15625 -2.640625 "/></g></g></g><g fill="#ffffff" fill-opacity="1"><g transform="translate(271.414189, 338.32196)"><g><path d="M 9.171875 0 L 2.796875 0 L 2.796875 -27.59375 L 9.171875 -27.59375 L 9.171875 -12.109375 L 15.625 -20.796875 L 24.203125 -20.796875 L 15.28125 -10.171875 L 24.203125 0 L 15.734375 0 L 9.171875 -8.3125 Z M 9.171875 0 "/></g></g></g><g fill="#ffffff" fill-opacity="1"><g transform="translate(295.757901, 338.32196)"><g><path d="M 11.625 0.265625 C 8.59375 0.265625 6.109375 -0.707031 4.171875 -2.65625 C 2.234375 -4.613281 1.265625 -7.207031 1.265625 -10.4375 C 1.265625 -13.664062 2.226562 -16.238281 4.15625 -18.15625 C 6.082031 -20.070312 8.570312 -21.03125 11.625 -21.03125 C 14.6875 -21.03125 17.222656 -20.082031 19.234375 -18.1875 C 21.242188 -16.300781 22.25 -13.679688 22.25 -10.328125 C 22.25 -9.609375 22.203125 -8.9375 22.109375 -8.3125 L 7.796875 -8.3125 C 7.921875 -7.394531 8.328125 -6.644531 9.015625 -6.0625 C 9.710938 -5.476562 10.460938 -5.1875 11.265625 -5.1875 C 12.078125 -5.1875 12.679688 -5.265625 13.078125 -5.421875 C 13.484375 -5.585938 13.773438 -5.75 13.953125 -5.90625 C 14.140625 -6.070312 14.382812 -6.335938 14.6875 -6.703125 L 21.578125 -6.703125 C 20.984375 -4.617188 19.789062 -2.9375 18 -1.65625 C 16.21875 -0.375 14.09375 0.265625 11.625 0.265625 Z M 15.625 -12.296875 C 15.519531 -13.265625 15.09375 -14.050781 14.34375 -14.65625 C 13.601562 -15.269531 12.722656 -15.578125 11.703125 -15.578125 C 10.679688 -15.578125 9.820312 -15.269531 9.125 -14.65625 C 8.4375 -14.050781 8.003906 -13.265625 7.828125 -12.296875 Z M 15.625 -12.296875 "/></g></g></g><g fill="#ffffff" fill-opacity="1"><g transform="translate(319.318748, 338.32196)"><g><path d="M 9.171875 -20.796875 L 9.171875 -16.921875 C 10.660156 -19.660156 12.648438 -21.03125 15.140625 -21.03125 L 15.140625 -14.546875 L 13.578125 -14.546875 C 12.109375 -14.546875 11.003906 -14.195312 10.265625 -13.5 C 9.535156 -12.800781 9.171875 -11.582031 9.171875 -9.84375 L 9.171875 0 L 2.796875 0 L 2.796875 -20.796875 Z M 9.171875 -20.796875 "/></g></g></g></svg>